<svg xmlns="http://www.w3.org/2000/svg" xmlns:xlink="http://www.w3.org/1999/xlink" viewBox="0 0 95.481 89.5134375" height="89.5134375" width="95.481" data-background-color="#ffffff" preserveAspectRatio="xMidYMid meet" id="tight-bounds"><g><svg viewBox="0 0 95.481 89.5134375" height="89.5134375" width="95.481"><g><svg viewBox="0 0 95.481 89.5134375" height="89.5134375" width="95.481"><g><svg viewBox="0 0 95.481 89.5134375" height="89.5134375" width="95.481"><g><svg viewBox="0 0 95.481 89.5134375" height="89.5134375" width="95.481"><g><svg viewBox="0 0 95.481 89.5134375" height="89.5134375" width="95.481"><g><svg xmlns="http://www.w3.org/2000/svg" xmlns:xlink="http://www.w3.org/1999/xlink" version="1.1" x="0" y="0" viewBox="10 15 80 75" enable-background="new 0 0 100 100" xml:space="preserve" height="89.5134375" width="95.481" class="icon-icon-0" data-fill-palette-color="accent" id="icon-0" fill="#ffffff"><path d="M67 15c-10 0-20 9.689-20 22v0.852C43.578 32.446 35.364 29 29 29H10v17c0 11 7 16 16.552 16h11.029C45.6 62 46 69 46 69v21h8V61.424C54.219 58.461 55.323 54 60 54h8c10.978 0 22-7 22-19.835V15H67z" fill="#ffffff" data-fill-palette-color="accent"/></svg></g></svg></g></svg></g></svg></g></svg></g></svg></g><defs/></svg>