<svg xmlns="http://www.w3.org/2000/svg" version="1.1" xmlns:xlink="http://www.w3.org/1999/xlink" xmlns:svgjs="http://svgjs.dev/svgjs" width="2000" height="378" viewBox="0 0 2000 378"><g transform="matrix(1,0,0,1,-1.2121212121212466,0.7939428472289478)"><svg viewBox="0 0 396 75" data-background-color="#ffffff" preserveAspectRatio="xMidYMid meet" height="378" width="2000" xmlns="http://www.w3.org/2000/svg" xmlns:xlink="http://www.w3.org/1999/xlink"><g id="tight-bounds" transform="matrix(1,0,0,1,0.2400000000000091,-0.15752834270415406)"><svg viewBox="0 0 395.52 75.31470461584598" height="75.31470461584598" width="395.52"><g><svg viewBox="0 0 509.000220767638 96.92354691675528" height="75.31470461584598" width="395.52"><g transform="matrix(1,0,0,1,113.48022076763799,13.395367193270815)"><svg viewBox="0 0 395.52 70.13281253021366" height="70.13281253021366" width="395.52"><g><svg viewBox="0 0 395.52 70.13281253021366" height="70.13281253021366" width="395.52"><g><svg viewBox="0 0 395.52 70.13281253021366" height="70.13281253021366" width="395.52"><g transform="matrix(1,0,0,1,0,0)"><svg width="395.52" viewBox="-0.20000000298023224 -37.099998474121094 258.5550231933594 45.849998474121094" height="70.13281253021366" data-palette-color="#50a060"><path d="M30.75-28.1L30.75-28.1Q31.15-28.1 31.45-27.83 31.75-27.55 31.75-26.85L31.75-26.85 31.75-22.35Q31.75-21.5 31.38-21.18 31-20.85 30.45-21.05L30.45-21.05Q29.95-21.2 29.33-21.3 28.7-21.4 28.25-21.4L28.25-21.4Q26.9-21.4 27.25-20.25L27.25-20.25Q27.35-19.9 27.43-19.5 27.5-19.1 27.5-18.7L27.5-18.7Q27.5-16.45 26.05-14.58 24.6-12.7 21.73-11.58 18.85-10.45 14.65-10.45L14.65-10.45Q13-10.45 11.98-10.28 10.95-10.1 10.48-9.8 10-9.5 10-9.1L10-9.1Q10-8.55 10.55-8.35 11.1-8.15 12.2-8.05L12.2-8.05 19.8-7.6Q25.35-7.25 27.93-5.25 30.5-3.25 30.5-0.15L30.5-0.15Q30.5 3.65 26.7 6.2 22.9 8.75 15.35 8.75L15.35 8.75Q7.5 8.75 3.65 7.28-0.2 5.8-0.2 2.65L-0.2 2.65Q-0.2 0.95 1.23 0.05 2.65-0.85 4.65-1.4L4.65-1.4Q5.35-1.6 4.65-1.95L4.65-1.95Q3.35-2.6 2.35-3.58 1.35-4.55 1.35-6.1L1.35-6.1Q1.35-7.3 2.15-8.22 2.95-9.15 4.2-9.93 5.45-10.7 6.8-11.25L6.8-11.25Q7.05-11.35 7.2-11.5 7.35-11.65 6.95-11.85L6.95-11.85Q4.5-12.9 3.13-14.63 1.75-16.35 1.75-18.65L1.75-18.65Q1.75-22.25 5.15-24.58 8.55-26.9 15.25-26.9L15.25-26.9Q18.1-26.9 20.23-26.28 22.35-25.65 23.6-24.65L23.6-24.65Q24-24.35 24.45-24.4 24.9-24.45 25.15-24.8L25.15-24.8Q25.85-25.75 26.88-26.5 27.9-27.25 28.98-27.68 30.05-28.1 30.75-28.1L30.75-28.1ZM14.55-15L14.55-15Q16.65-15 17.55-16.1 18.45-17.2 18.45-18.5L18.45-18.5Q18.45-20.05 17.55-21.15 16.65-22.25 14.55-22.25L14.55-22.25Q12.7-22.25 11.68-21.15 10.65-20.05 10.65-18.5L10.65-18.5Q10.65-17.15 11.68-16.07 12.7-15 14.55-15L14.55-15ZM18.55-0.1L11.3-0.4Q10.25-0.45 9.47-0.23 8.7 0 8.28 0.4 7.85 0.8 7.85 1.35L7.85 1.35Q7.85 2.25 8.55 2.93 9.25 3.6 10.98 3.95 12.7 4.3 15.85 4.3L15.85 4.3Q18.8 4.3 20.33 3.58 21.85 2.85 21.85 1.75L21.85 1.75Q21.85 1.05 21 0.5 20.15-0.05 18.55-0.1L18.55-0.1ZM47.3-2.1L47.3-2.1Q45.95-1 44.17-0.25 42.4 0.5 40.05 0.5L40.05 0.5Q36.3 0.5 34.17-1.6 32.05-3.7 32.05-6.8L32.05-6.8Q32.05-9.75 33.92-11.95 35.8-14.15 39.25-15.38 42.7-16.6 47.4-16.6L47.4-16.6 47.75-16.6Q47.95-16.6 48.22-16.73 48.5-16.85 48.5-17.3L48.5-17.3 48.5-18.15Q48.5-19.55 47.77-20.3 47.05-21.05 45.55-21.05L45.55-21.05Q44.5-21.05 43.4-20.58 42.3-20.1 41.65-18.7L41.65-18.7Q41.45-18.3 41.22-18.18 41-18.05 40.3-18.15L40.3-18.15 33.75-19.45Q33.4-19.55 33.22-19.83 33.05-20.1 33.4-21.05L33.4-21.05Q34.55-24.25 37.82-25.63 41.1-27 46-27L46-27Q50.65-27 53.25-25.95 55.85-24.9 56.92-23.05 58-21.2 58-18.75L58-18.75 58-1.35Q58-0.6 57.77-0.3 57.55 0 56.85 0L56.85 0 50 0Q49.35 0 49.07-0.53 48.8-1.05 48.7-1.75L48.7-1.75 48.65-2.1Q48.5-3.1 47.3-2.1L47.3-2.1ZM48.5-11.2L48.5-11.2Q48.5-12.1 47.75-12.1L47.75-12.1 47.55-12.1Q46.95-12.1 45.97-11.88 45-11.65 44.05-11.18 43.1-10.7 42.42-9.95 41.75-9.2 41.75-8.15L41.75-8.15Q41.75-7.1 42.5-6.45 43.25-5.8 44.6-5.8L44.6-5.8Q45.6-5.8 46.27-6.1 46.95-6.4 47.35-6.75L47.35-6.75Q47.8-7.15 48.15-7.58 48.5-8 48.5-8.55L48.5-8.55 48.5-11.2ZM63.65 0L63.65 0Q62.9 0 62.62-0.3 62.34-0.6 62.34-1.25L62.34-1.25 62.34-25.35Q62.34-26.5 63.3-26.5L63.3-26.5 71.09-26.5Q72-26.5 72-25.5L72-25.5 72-22.7Q72-22.35 72.3-22.28 72.59-22.2 72.84-22.55L72.84-22.55Q73.65-23.8 74.9-24.8 76.15-25.8 77.55-26.4 78.95-27 80.09-27L80.09-27Q81.95-27 81.95-26L81.95-26 81.95-18.4Q81.95-17.35 80.95-17.6L80.95-17.6Q79.8-17.9 78.57-18.03 77.34-18.15 76.65-18.15L76.65-18.15Q75.84-18.15 75.07-17.88 74.3-17.6 73.67-17.1 73.05-16.6 72.7-16 72.34-15.4 72.34-14.75L72.34-14.75 72.34-1.45Q72.34 0 70.7 0L70.7 0 63.65 0ZM102.14 0L102.14 0Q101.64 0 101.27-0.25 100.89-0.5 100.89-1.15L100.89-1.15 100.89-2.1Q100.89-2.45 100.64-2.5 100.39-2.55 100.14-2.3L100.14-2.3Q99.19-1.4 98.17-0.78 97.14-0.15 95.92 0.18 94.69 0.5 93.14 0.5L93.14 0.5Q90.19 0.5 87.94-1.03 85.69-2.55 84.42-5.6 83.14-8.65 83.14-13.15L83.14-13.15Q83.14-17.35 84.62-20.45 86.09-23.55 88.49-25.28 90.89-27 93.64-27L93.64-27Q95.34-27 96.82-26.45 98.29-25.9 99.84-24.4L99.84-24.4Q100.24-24.1 100.52-24.15 100.79-24.2 100.79-24.8L100.79-24.8 100.79-36.05Q100.79-37.1 101.69-37.1L101.69-37.1 109.79-37.1Q110.74-37.1 110.74-35.95L110.74-35.95 110.74-1.25Q110.74-0.6 110.47-0.3 110.19 0 109.39 0L109.39 0 102.14 0ZM100.74-18.9L100.74-18.9Q99.94-19.85 99.17-20.33 98.39-20.8 97.24-20.8L97.24-20.8Q96.09-20.8 95.17-20.1 94.24-19.4 93.74-17.75 93.24-16.1 93.24-13.2L93.24-13.2Q93.24-10.35 93.72-8.65 94.19-6.95 95.09-6.23 95.99-5.5 97.24-5.5L97.24-5.5Q98.24-5.5 99.02-5.93 99.79-6.35 100.27-7.1 100.74-7.85 100.74-8.8L100.74-8.8 100.74-18.9ZM124.14-10.6L124.14-10.6Q124.14-9.1 124.82-8.1 125.49-7.1 126.67-6.6 127.84-6.1 129.29-6.1L129.29-6.1Q130.59-6.1 131.84-6.7 133.09-7.3 134.74-8.9L134.74-8.9Q134.94-9.1 135.12-9.13 135.29-9.15 135.79-8.95L135.79-8.95 140.34-7.1Q141.24-6.75 140.54-5.9L140.54-5.9Q138.74-3.4 136.92-2 135.09-0.6 132.92-0.05 130.74 0.5 127.94 0.5L127.94 0.5Q123.94 0.5 120.74-1.2 117.54-2.9 115.69-5.9 113.84-8.9 113.84-12.8L113.84-12.8Q113.84-17.05 115.77-20.25 117.69-23.45 120.87-25.23 124.04-27 127.74-27L127.74-27Q131.69-27 134.74-25.3 137.79-23.6 139.56-20.43 141.34-17.25 141.34-12.7L141.34-12.7Q141.34-12.05 141.22-11.78 141.09-11.5 140.44-11.45L140.44-11.45 124.89-11.45Q124.54-11.45 124.34-11.25 124.14-11.05 124.14-10.6L124.14-10.6ZM124.29-16.65L130.79-16.6Q131.29-16.6 131.47-16.73 131.64-16.85 131.64-17.3L131.64-17.3Q131.64-17.95 131.29-18.85 130.94-19.75 130.19-20.45 129.44-21.15 128.19-21.15L128.19-21.15Q127.19-21.15 126.27-20.68 125.34-20.2 124.82-19.2 124.29-18.2 124.29-16.65L124.29-16.65ZM145.64 0L145.64 0Q144.34 0 144.34-1.25L144.34-1.25 144.34-25.35Q144.34-26.5 145.29-26.5L145.29-26.5 153.34-26.5Q154.24-26.5 154.24-25.5L154.24-25.5 154.24-23.25Q154.24-22.95 154.41-22.85 154.59-22.75 154.89-23.05L154.89-23.05Q155.94-24.2 157.19-25.1 158.44-26 159.86-26.5 161.29-27 162.84-27L162.84-27Q166.34-27 168.51-24.8 170.69-22.6 170.69-18.9L170.69-18.9 170.69-1.5Q170.69 0 169.19 0L169.19 0 161.84 0Q161.19 0 160.94-0.28 160.69-0.55 160.69-1.25L160.69-1.25 160.69-17.55Q160.69-18.7 159.96-19.33 159.24-19.95 158.04-19.95L158.04-19.95Q157.29-19.95 156.61-19.68 155.94-19.4 155.39-18.85 154.84-18.3 154.34-17.45L154.34-17.45 154.34-1.45Q154.34 0 152.69 0L152.69 0 145.64 0ZM192.04-19.75L187.39-19.75Q186.74-19.75 186.74-19.1L186.74-19.1 186.74-9.5Q186.74-8.2 187.56-7.53 188.39-6.85 190.24-6.85L190.24-6.85 192.39-6.85Q192.79-6.85 193.04-6.55 193.29-6.25 193.29-5.85L193.29-5.85 193.24-1.85Q193.24-0.65 191.79-0.35L191.79-0.35Q190.69-0.2 189.56-0.13 188.44-0.05 187.31-0.03 186.19 0 185.04 0L185.04 0Q181.44 0 179.09-1.73 176.74-3.45 176.74-6.65L176.74-6.65 176.74-18.85Q176.74-19.75 175.99-19.75L175.99-19.75 173.59-19.75Q172.39-19.75 172.39-20.85L172.39-20.85 172.39-25.55Q172.39-26.5 173.49-26.5L173.49-26.5 176.44-26.5Q176.99-26.5 177.04-27.1L177.04-27.1 177.84-34.5Q177.94-35.5 178.74-35.5L178.74-35.5 186.09-35.5Q187.04-35.5 187.04-34.4L187.04-34.4 187.04-27.1Q187.04-26.55 187.59-26.55L187.59-26.55 192.19-26.55Q193.29-26.55 193.29-25.6L193.29-25.6 193.29-20.85Q193.29-19.75 192.04-19.75L192.04-19.75ZM206.63-25.5L206.63-1.45Q206.63-0.65 206.23-0.33 205.83 0 204.98 0L204.98 0 197.93 0Q197.18 0 196.91-0.3 196.63-0.6 196.63-1.25L196.63-1.25 196.63-25.35Q196.63-26.5 197.58-26.5L197.58-26.5 205.73-26.5Q206.63-26.5 206.63-25.5L206.63-25.5ZM206.63-36.05L206.63-30.15Q206.63-28.7 204.98-28.7L204.98-28.7 197.93-28.7Q197.18-28.7 196.91-29.03 196.63-29.35 196.63-30L196.63-30 196.63-35.95Q196.63-37.1 197.58-37.1L197.58-37.1 205.73-37.1Q206.63-37.1 206.63-36.05L206.63-36.05ZM227.43-26.5L227.43-26.5Q228.08-26.5 228.38-26.18 228.68-25.85 228.68-25.4L228.68-25.4 228.68-20.7Q228.68-19.75 227.58-19.75L227.58-19.75 224.48-19.75Q223.88-19.75 223.88-19.15L223.88-19.15 223.88-1.1Q223.88 0 222.93 0L222.93 0 214.78 0Q213.88 0 213.88-1L213.88-1 213.88-19.25Q213.88-19.75 213.48-19.75L213.48-19.75 210.68-19.75Q209.58-19.75 209.58-20.7L209.58-20.7 209.58-25.4Q209.58-25.85 209.86-26.18 210.13-26.5 210.78-26.5L210.78-26.5 213.18-26.5Q213.88-26.5 213.88-27.4L213.88-27.4 213.88-30.05Q213.88-33.3 216-35.2 218.13-37.1 221.78-37.1L221.78-37.1 227.43-37.1Q228.88-37.1 228.88-35.8L228.88-35.8 228.93-31.6Q228.93-31.2 228.71-30.9 228.48-30.6 228.03-30.6L228.03-30.6 225.88-30.6Q225.03-30.6 224.33-29.85 223.63-29.1 223.63-28.05L223.63-28.05 223.63-27.15Q223.63-26.5 224.28-26.5L224.28-26.5 227.43-26.5ZM234.68 8.25L234.68 8.25Q233.13 8.25 232.5 8.05 231.88 7.85 231.88 7.15L231.88 7.15 231.88 2.05Q231.88 1.75 232.18 1.43 232.48 1.1 233.28 1.1L233.28 1.1 236.83 1.1Q237.68 1.1 238.38 0.85 239.08 0.6 239.5 0.23 239.93-0.15 240.1-0.63 240.28-1.1 240.08-1.55L240.08-1.55 230.38-25.05Q230.18-25.6 230.45-26.05 230.73-26.5 231.33-26.5L231.33-26.5 239.78-26.5Q240.23-26.5 240.58-26.2 240.93-25.9 241.08-25.5L241.08-25.5 245.33-13.5Q245.48-13.05 245.73-13.03 245.98-13 246.18-13.5L246.18-13.5 250.48-25.5Q250.68-25.9 251-26.2 251.33-26.5 251.78-26.5L251.78-26.5 257.38-26.5Q257.98-26.5 258.23-26.05 258.48-25.6 258.23-25.05L258.23-25.05 248.48-1.55Q247.18 1.6 245.9 3.53 244.63 5.45 243.08 6.48 241.53 7.5 239.5 7.88 237.48 8.25 234.68 8.25L234.68 8.25Z" opacity="1" transform="matrix(1,0,0,1,0,0)" fill="#ffffff" class="undefined-text-0" data-fill-palette-color="primary" id="text-0"></path></svg></g></svg></g></svg></g></svg></g><g><svg viewBox="0 0 96.92354691675527 96.92354691675528" height="96.92354691675528" width="96.92354691675527"><g><svg></svg></g><g id="icon-0"><svg viewBox="0 0 96.92354691675527 96.92354691675528" height="96.92354691675528" width="96.92354691675527"><g><path xmlns="http://www.w3.org/2000/svg" d="M29.077 96.924c-16.059 0-29.077-13.018-29.077-29.078v-38.769c0-16.059 13.018-29.077 29.077-29.077h38.769c16.059 0 29.077 13.018 29.078 29.077v38.769c0 16.059-13.018 29.077-29.078 29.078z" fill="#ffffff" fill-rule="nonzero" stroke="none" stroke-width="1" stroke-linecap="butt" stroke-linejoin="miter" stroke-miterlimit="10" stroke-dasharray="" stroke-dashoffset="0" font-family="none" font-weight="none" font-size="none" text-anchor="none" style="mix-blend-mode: normal" data-fill-palette-color="accent"></path></g><g transform="matrix(1,0,0,1,17.446238445015943,19.38470938335106)"><svg viewBox="0 0 62.031070026723384 58.15412815005317" height="58.15412815005317" width="62.031070026723384"><g><svg xmlns="http://www.w3.org/2000/svg" xmlns:xlink="http://www.w3.org/1999/xlink" version="1.1" x="0" y="0" viewBox="10 15 80 75" enable-background="new 0 0 100 100" xml:space="preserve" height="58.15412815005317" width="62.031070026723384" class="icon-a-0" data-fill-palette-color="quaternary" id="a-0"><path d="M67 15c-10 0-20 9.689-20 22v0.852C43.578 32.446 35.364 29 29 29H10v17c0 11 7 16 16.552 16h11.029C45.6 62 46 69 46 69v21h8V61.424C54.219 58.461 55.323 54 60 54h8c10.978 0 22-7 22-19.835V15H67z" fill="#000000" data-fill-palette-color="quaternary"></path></svg></g></svg></g></svg></g></svg></g></svg></g><defs></defs></svg><rect width="395.52" height="75.31470461584598" fill="none" stroke="none" visibility="hidden"></rect></g></svg></g></svg>